<svg width="24" height="24" viewBox="0 0 24 24" fill="none" xmlns="http://www.w3.org/2000/svg">
<g clip-path="url(#clip0_218_278)">
<path d="M12 8.80999C10.2435 8.80999 8.81004 10.2435 8.81004 12C8.81004 13.7565 10.2435 15.19 12 15.19C13.7566 15.19 15.19 13.7565 15.19 12C15.19 10.2435 13.7566 8.80999 12 8.80999ZM21.5676 12C21.5676 10.679 21.5796 9.36997 21.5054 8.05138C21.4312 6.5198 21.0818 5.16053 19.9619 4.04056C18.8395 2.9182 17.4826 2.5712 15.951 2.49701C14.63 2.42283 13.321 2.43479 12.0024 2.43479C10.6814 2.43479 9.37242 2.42283 8.05382 2.49701C6.52224 2.5712 5.16297 2.92059 4.043 4.04056C2.92064 5.16292 2.57364 6.5198 2.49946 8.05138C2.42527 9.37237 2.43724 10.6814 2.43724 12C2.43724 13.3186 2.42527 14.63 2.49946 15.9486C2.57364 17.4802 2.92303 18.8394 4.043 19.9594C5.16536 21.0818 6.52224 21.4288 8.05382 21.5029C9.37481 21.5771 10.6838 21.5652 12.0024 21.5652C13.3234 21.5652 14.6324 21.5771 15.951 21.5029C17.4826 21.4288 18.8419 21.0794 19.9619 19.9594C21.0842 18.837 21.4312 17.4802 21.5054 15.9486C21.582 14.63 21.5676 13.321 21.5676 12ZM12 16.9082C9.28387 16.9082 7.0918 14.7161 7.0918 12C7.0918 9.28382 9.28387 7.09175 12 7.09175C14.7162 7.09175 16.9083 9.28382 16.9083 12C16.9083 14.7161 14.7162 16.9082 12 16.9082ZM17.1093 8.03702C16.4751 8.03702 15.963 7.5249 15.963 6.89073C15.963 6.25656 16.4751 5.74444 17.1093 5.74444C17.7435 5.74444 18.2556 6.25656 18.2556 6.89073C18.2558 7.04132 18.2262 7.19046 18.1687 7.32962C18.1112 7.46878 18.0267 7.59522 17.9203 7.7017C17.8138 7.80818 17.6873 7.89261 17.5482 7.95015C17.409 8.00769 17.2599 8.03721 17.1093 8.03702Z" fill="white"/>
</g>
<defs>
<clipPath id="clip0_218_278">
<rect width="19.2" height="19.2" fill="white" transform="translate(2.40002 2.3999)"/>
</clipPath>
</defs>
</svg>
