<svg width="24" height="24" viewBox="0 0 24 24" fill="none" xmlns="http://www.w3.org/2000/svg">
<g clip-path="url(#clip0_218_273)">
<path d="M21.3016 6.52113C20.6046 6.83 19.8558 7.0387 19.0686 7.13303C19.8808 6.64701 20.4885 5.88208 20.7782 4.98096C20.0151 5.43424 19.1799 5.75329 18.3089 5.92426C17.7232 5.2989 16.9474 4.88439 16.102 4.74511C15.2566 4.60582 14.3889 4.74955 13.6335 5.15397C12.8781 5.55839 12.2774 6.20088 11.9246 6.98168C11.5718 7.76249 11.4867 8.63793 11.6824 9.47209C10.1361 9.39445 8.62347 8.99255 7.24257 8.29246C5.86167 7.59237 4.6434 6.60975 3.66684 5.40837C3.33292 5.98437 3.14092 6.65219 3.14092 7.36343C3.14055 8.0037 3.29822 8.63417 3.59995 9.19889C3.90168 9.76361 4.33814 10.2451 4.87059 10.6007C4.25309 10.5811 3.6492 10.4142 3.1092 10.114V10.1641C3.10914 11.0621 3.41977 11.9325 3.98838 12.6276C4.55699 13.3226 5.34857 13.7995 6.22879 13.9774C5.65594 14.1324 5.05536 14.1553 4.4724 14.0442C4.72075 14.8169 5.2045 15.4926 5.85594 15.9767C6.50738 16.4607 7.2939 16.729 8.10538 16.7439C6.72785 17.8253 5.0266 18.4118 3.27532 18.4093C2.9651 18.4094 2.65514 18.3912 2.34705 18.355C4.1247 19.498 6.19401 20.1046 8.30739 20.1022C15.4615 20.1022 19.3724 14.1769 19.3724 9.038C19.3724 8.87104 19.3683 8.70242 19.3608 8.53546C20.1215 7.98532 20.7781 7.30407 21.3 6.52364L21.3016 6.52113Z" fill="white"/>
</g>
<defs>
<clipPath id="clip0_218_273">
<rect width="19.2" height="19.2" fill="white" transform="translate(2.40002 2.3999)"/>
</clipPath>
</defs>
</svg>
